<svg xmlns="http://www.w3.org/2000/svg" data-name="Layer 2" viewBox="0 0 1080 1080">
  <path d="M70.89 766c-44.6-47.1 3.11-173.11 75.05-250.17 87.48-93.69 208.08-172.5 441.19-145.7 192.49 22.14 312 119.22 352.65 169.23 64.64 79.48 111.34 191.62 72.41 238-65.33 77.85-335.25-54.61-481.66-57.31S170.48 871 70.89 766z" fill="#e1ecff"/>
  <path d="M762.61 690.75h-508.1L147.64 341.38A22.29 22.29 0 01169 312.56h461.42a22.3 22.3 0 0121.33 15.78z" fill="#ff97c9"/>
  <path d="M679.4 649.16H314.88a22.52 22.52 0 01-21.53-15.92l-80.93-264.58a11.22 11.22 0 0110.74-14.51h364.52a22.52 22.52 0 0121.53 15.92l80.93 264.58a11.22 11.22 0 01-10.74 14.51z" fill="#1c3177"/>
  <path d="M254.51 690.75H937a17.36 17.36 0 0117.36 17.36v23.19A17.36 17.36 0 01937 748.66H271.87a17.36 17.36 0 01-17.36-17.36v-40.55z" fill="#f774b9"/>
  <path fill="none" stroke="#99adf9" stroke-linecap="round" stroke-miterlimit="10" stroke-width="18" d="M337.69 514.4l41.51-46.33m9.8 46.33l-62.51-46.33m216.18 46.33l41.51-46.33m9.8 46.33l-62.52-46.33m-91.39 75.61s32.54-17.94 65.59 0"/>
  <path d="M795.44 489a16.51 16.51 0 01-16.09-13c-3.06-13.79-5-24.32-2.3-34.17 3.24-11.68 11.79-18.52 21-25.06 6.21-4.4 10.52-11.08 11-17 .3-3.93-1.08-7.24-4.35-10.4-9.66-9.37-25.3 5.21-26 5.84 0 0-13.14 11.12-22.9-.54s0-23.22 0-23.22a75.89 75.89 0 0121.42-14c18.79-8 36.69-5 50.41 8.25 10.26 9.94 15.33 22.95 14.28 36.63-1.21 15.78-10.48 31.27-24.81 41.41-6.73 4.77-8 6.46-8.31 7-.77 2.44 1.77 13.87 2.73 18.18A16.53 16.53 0 01795.44 489z" fill="#fec272"/>
  <circle cx="803.39" cy="527.09" r="19.13" fill="#fec272"/>
</svg>
